<?xml version="1.0" standalone="no"?>
<!DOCTYPE svg PUBLIC "-//W3C//DTD SVG 20010904//EN"
 "http://www.w3.org/TR/2001/REC-SVG-20010904/DTD/svg10.dtd">
<svg version="1.0" xmlns="http://www.w3.org/2000/svg"
 width="286.000000pt" height="289.000000pt" viewBox="0 0 286.000000 289.000000"
 preserveAspectRatio="xMidYMid meet">

<g transform="translate(0.000000,289.000000) scale(0.100000,-0.100000)"
fill="#000000" stroke="none">
<path d="M1365 2369 c-66 -22 -169 -53 -230 -70 -202 -55 -346 -119 -447 -200
l-38 -30 0 25 c0 55 238 171 495 241 55 14 105 31 110 37 7 6 2 8 -15 4 -14
-3 -52 -10 -85 -17 -171 -32 -467 -151 -518 -207 -14 -15 -16 -77 -18 -522
l-2 -505 27 -79 c47 -138 170 -319 267 -392 64 -48 149 -98 155 -91 3 3 -31
45 -76 94 -96 105 -135 161 -194 280 -90 182 -96 230 -96 720 l0 392 53 40
c90 67 167 98 312 125 49 9 117 32 175 60 118 55 209 80 271 73 66 -8 187 -50
250 -88 39 -23 77 -35 137 -44 58 -9 108 -25 165 -53 129 -63 116 -18 121
-400 8 -511 -9 -663 -93 -836 -64 -131 -191 -287 -304 -372 -34 -25 -131 -80
-215 -120 l-153 -74 -72 37 c-40 21 -100 59 -134 85 -35 26 -63 45 -63 42 0
-3 19 -33 42 -66 36 -51 56 -67 146 -118 l105 -59 69 35 c113 57 319 186 409
256 113 88 218 201 262 279 20 35 51 107 69 159 l33 95 3 520 3 520 -58 37
c-138 86 -326 166 -481 202 -118 27 -52 -9 88 -48 101 -28 255 -99 305 -141
25 -20 18 -18 -36 10 -70 37 -567 205 -603 205 -12 0 -75 -19 -141 -41z"/>
<path d="M1401 2195 c-114 -56 -172 -95 -207 -141 -25 -32 -26 -36 -11 -51 14
-14 33 -18 120 -22 12 -1 16 -5 11 -13 -5 -7 13 5 38 27 25 23 72 53 103 69
49 24 56 30 50 49 -9 28 -9 43 0 90 5 22 4 37 -2 37 -5 0 -51 -20 -102 -45z"/>
<path d="M1524 2106 l7 -94 -44 -31 c-84 -57 -137 -137 -150 -223 -9 -59 18
-49 33 12 17 69 137 237 156 217 8 -7 -11 -42 -57 -102 -50 -66 -69 -114 -69
-170 0 -38 3 -45 19 -45 15 0 22 12 31 51 12 48 51 109 71 109 6 0 9 -31 7
-70 -1 -40 3 -75 9 -81 14 -14 120 -23 177 -15 69 11 98 40 104 108 6 71 -19
158 -58 201 l-29 32 9 -40 c18 -79 -24 -186 -92 -235 -23 -17 -42 -29 -44 -27
-1 1 17 52 41 112 24 61 50 134 57 164 l12 55 -89 83 c-50 46 -94 83 -99 83
-5 0 -6 -41 -2 -94z"/>
<path d="M1465 1609 c-16 -11 -41 -19 -55 -19 -24 -1 -24 -1 -6 -15 27 -20 31
-19 68 14 39 35 35 46 -7 20z"/>
<path d="M1512 1588 l3 -43 121 -3 121 -3 11 26 c7 14 12 32 12 39 0 18 -54
26 -173 26 l-98 0 3 -42z"/>
<path d="M1517 1513 c-3 -5 -5 -55 -5 -113 0 -68 -4 -106 -11 -108 -6 -2 -35
-21 -63 -43 -46 -34 -54 -37 -68 -24 -8 8 -42 26 -75 41 -33 15 -63 32 -67 38
-4 6 19 21 55 38 50 22 57 27 35 28 -16 0 -28 5 -28 10 0 6 -12 10 -26 10 -35
0 -141 28 -179 47 -16 8 -45 29 -62 46 -29 27 -33 29 -33 11 0 -36 56 -89 137
-129 95 -49 87 -44 81 -50 -3 -3 -42 7 -86 22 -45 15 -84 24 -87 21 -8 -8 -42
-143 -47 -182 l-3 -30 95 -18 c132 -26 238 -77 300 -145 l49 -53 -1 79 c0 121
31 169 155 237 28 15 61 40 74 54 12 15 47 46 78 70 57 44 112 121 100 140 -7
12 -311 14 -318 3z m-87 -325 l0 -42 -22 21 c-21 22 -21 23 -3 43 10 11 20 20
22 20 1 0 3 -19 3 -42z"/>
<path d="M1788 1330 c-269 -113 -327 -171 -344 -340 -4 -41 -6 -79 -5 -85 2
-5 6 -68 9 -140 l7 -130 68 -3 c37 -2 67 1 67 6 0 4 -16 16 -35 25 l-35 17 0
140 c0 157 6 176 64 227 49 44 131 71 249 85 56 6 103 12 104 13 9 6 -39 180
-53 196 -20 23 -13 24 -96 -11z"/>
<path d="M1813 929 l-28 -53 -3 37 c-2 24 -8 37 -18 37 -11 0 -14 -24 -14
-130 0 -109 2 -130 15 -130 11 0 15 12 15 48 0 81 14 84 51 9 23 -45 39 -67
51 -67 19 0 24 15 9 25 -5 3 -17 27 -27 53 -9 26 -26 57 -38 70 l-20 22 27 55
c31 63 32 68 19 73 -6 2 -23 -21 -39 -49z"/>
<path d="M1050 815 l0 -135 55 0 c34 0 55 4 55 11 0 8 5 7 16 -2 13 -10 17
-10 25 2 5 8 9 23 9 34 1 62 50 60 63 -3 6 -33 12 -42 25 -40 9 3 16 8 16 14
-1 5 -12 64 -25 132 -22 115 -24 122 -46 122 -28 0 -26 4 -49 -133 l-17 -108
-41 3 -41 3 -3 118 c-2 109 -4 117 -22 117 -19 0 -20 -7 -20 -135z m203 18 c5
-25 3 -33 -8 -33 -16 0 -20 26 -9 55 8 20 10 18 17 -22z"/>
<path d="M1330 920 c0 -36 19 -226 26 -257 3 -18 11 -23 34 -23 29 0 30 2 30
43 0 23 3 67 5 97 6 54 5 54 -7 20 -7 -19 -21 -36 -30 -38 -16 -3 -18 6 -18
92 0 89 -1 96 -20 96 -15 0 -20 -7 -20 -30z"/>
<path d="M1560 820 c0 -109 2 -130 15 -130 12 0 15 18 15 102 0 56 3 98 7 94
4 -4 25 -52 48 -108 57 -145 66 -141 63 28 -2 96 -7 139 -15 141 -9 3 -13 -19
-15 -79 l-3 -83 -29 83 c-28 76 -31 82 -58 82 l-28 0 0 -130z"/>
</g>
</svg>
